<svg width="124" height="56" viewBox="0 0 124 56" fill="none" xmlns="http://www.w3.org/2000/svg">
<path d="M1.79692 20.2678L5.72128 19.8863C5.95747 21.2035 6.43439 22.1709 7.15204 22.7886C7.87877 23.4064 8.85532 23.7152 10.0817 23.7152C11.3807 23.7152 12.3573 23.4427 13.0113 22.8977C13.6745 22.3435 14.006 21.6985 14.006 20.9627C14.006 20.4904 13.8652 20.0906 13.5836 19.7636C13.3111 19.4275 12.8296 19.1368 12.1392 18.8915C11.6669 18.728 10.5904 18.4373 8.90983 18.0195C6.74779 17.4835 5.23074 16.8249 4.35865 16.0436C3.13229 14.9445 2.51911 13.6045 2.51911 12.0239C2.51911 11.0065 2.80526 10.0572 3.37756 9.17601C3.95895 8.28577 4.79015 7.60899 5.87117 7.1457C6.96127 6.68241 8.27393 6.45076 9.80916 6.45076C12.3164 6.45076 14.2014 7.00035 15.4641 8.09954C16.7358 9.19872 17.4035 10.6658 17.4671 12.5008L13.4337 12.678C13.2611 11.6515 12.8887 10.9156 12.3164 10.4705C11.7532 10.0163 10.9038 9.7892 9.76828 9.7892C8.59642 9.7892 7.67892 10.0299 7.01578 10.5114C6.58882 10.8203 6.37534 11.2336 6.37534 11.7514C6.37534 12.2238 6.57519 12.628 6.9749 12.9641C7.48361 13.3911 8.71906 13.8362 10.6812 14.2995C12.6434 14.7628 14.0923 15.2442 15.028 15.7439C15.9728 16.2344 16.7086 16.9112 17.2355 17.7742C17.7714 18.6281 18.0394 19.6864 18.0394 20.9491C18.0394 22.0937 17.7215 23.1656 17.0856 24.1649C16.4497 25.1642 15.5504 25.9091 14.3876 26.3996C13.2248 26.8811 11.7759 27.1218 10.0408 27.1218C7.5154 27.1218 5.57593 26.5404 4.22239 25.3776C2.86885 24.2058 2.06036 22.5025 1.79692 20.2678ZM24.2666 16.7113L20.7919 16.0845C21.1825 14.6856 21.8548 13.65 22.8086 12.9777C23.7624 12.3055 25.1796 11.9694 27.06 11.9694C28.7678 11.9694 30.0396 12.1738 30.8754 12.5826C31.7111 12.9823 32.297 13.4955 32.6331 14.1223C32.9783 14.7401 33.1509 15.8801 33.1509 17.5425L33.1101 22.012C33.1101 23.2837 33.1691 24.2239 33.2872 24.8326C33.4144 25.4321 33.646 26.0771 33.9821 26.7675H30.194C30.0941 26.5132 29.9715 26.1362 29.8261 25.6365C29.7625 25.4094 29.7171 25.2595 29.6899 25.1869C29.0358 25.8228 28.3363 26.2997 27.5914 26.6176C26.8465 26.9356 26.0517 27.0945 25.2068 27.0945C23.717 27.0945 22.5406 26.6903 21.6776 25.8818C20.8237 25.0733 20.3968 24.0513 20.3968 22.8159C20.3968 21.9983 20.5921 21.2716 20.9827 20.6357C21.3733 19.9907 21.9184 19.5002 22.6178 19.1641C23.3264 18.8189 24.3438 18.5191 25.6701 18.2647C27.4597 17.9286 28.6997 17.6152 29.3901 17.3245V16.943C29.3901 16.2072 29.2084 15.6848 28.845 15.376C28.4817 15.058 27.7958 14.899 26.7875 14.899C26.1062 14.899 25.5747 15.0353 25.1932 15.3078C24.8117 15.5713 24.5028 16.0391 24.2666 16.7113ZM29.3901 19.8181C28.8995 19.9816 28.1229 20.1769 27.06 20.4041C25.9972 20.6312 25.3022 20.8537 24.9752 21.0717C24.4756 21.426 24.2257 21.8757 24.2257 22.4207C24.2257 22.9567 24.4256 23.42 24.8253 23.8106C25.225 24.2012 25.7337 24.3965 26.3514 24.3965C27.0418 24.3965 27.7004 24.1694 28.3272 23.7152C28.7905 23.37 29.0949 22.9476 29.2402 22.448C29.3401 22.121 29.3901 21.4987 29.3901 20.5812V19.8181ZM46.4638 26.7675V24.6009C45.9369 25.3731 45.242 25.9817 44.379 26.4269C43.5251 26.872 42.6212 27.0945 41.6674 27.0945C40.6953 27.0945 39.8233 26.8811 39.0511 26.4541C38.279 26.0272 37.7203 25.4276 37.3751 24.6554C37.0299 23.8833 36.8573 22.8159 36.8573 21.4533V12.2964H40.6863V18.946C40.6863 20.9809 40.7544 22.23 40.8907 22.6933C41.036 23.1475 41.2949 23.5108 41.6674 23.7834C42.0398 24.0468 42.5122 24.1785 43.0845 24.1785C43.7385 24.1785 44.3245 24.0014 44.8423 23.6471C45.3601 23.2837 45.7144 22.8386 45.9051 22.3117C46.0959 21.7758 46.1913 20.4722 46.1913 18.401V12.2964H50.0203V26.7675H46.4638ZM67.2711 26.7675H63.7146V24.6418C63.1242 25.4685 62.4247 26.0862 61.6162 26.495C60.8168 26.8947 60.0083 27.0945 59.1907 27.0945C57.5283 27.0945 56.1021 26.4269 54.9121 25.0915C53.7311 23.747 53.1407 21.8757 53.1407 19.4775C53.1407 17.0247 53.7175 15.1625 54.8712 13.8907C56.0249 12.6098 57.4829 11.9694 59.2452 11.9694C60.8622 11.9694 62.2612 12.6416 63.4421 13.9861V6.79142H67.2711V26.7675ZM57.0514 19.2186C57.0514 20.7629 57.2649 21.8802 57.6918 22.5706C58.3096 23.5699 59.1726 24.0695 60.2808 24.0695C61.162 24.0695 61.9114 23.6971 62.5292 22.9522C63.1469 22.1982 63.4557 21.0763 63.4557 19.5865C63.4557 17.9241 63.156 16.7295 62.5564 16.0028C61.9569 15.267 61.1892 14.899 60.2536 14.899C59.3452 14.899 58.5821 15.2624 57.9644 15.9891C57.3557 16.7068 57.0514 17.7833 57.0514 19.2186ZM73.9207 16.7113L70.446 16.0845C70.8366 14.6856 71.5089 13.65 72.4627 12.9777C73.4165 12.3055 74.8337 11.9694 76.7141 11.9694C78.4219 11.9694 79.6937 12.1738 80.5294 12.5826C81.3652 12.9823 81.9511 13.4955 82.2872 14.1223C82.6324 14.7401 82.805 15.8801 82.805 17.5425L82.7642 22.012C82.7642 23.2837 82.8232 24.2239 82.9413 24.8326C83.0685 25.4321 83.3001 26.0771 83.6362 26.7675H79.8481C79.7482 26.5132 79.6256 26.1362 79.4802 25.6365C79.4166 25.4094 79.3712 25.2595 79.344 25.1869C78.6899 25.8228 77.9904 26.2997 77.2455 26.6176C76.5006 26.9356 75.7058 27.0945 74.8609 27.0945C73.3711 27.0945 72.1947 26.6903 71.3317 25.8818C70.4778 25.0733 70.0509 24.0513 70.0509 22.8159C70.0509 21.9983 70.2462 21.2716 70.6368 20.6357C71.0274 19.9907 71.5725 19.5002 72.2719 19.1641C72.9805 18.8189 73.9979 18.5191 75.3242 18.2647C77.1138 17.9286 78.3538 17.6152 79.0442 17.3245V16.943C79.0442 16.2072 78.8625 15.6848 78.4991 15.376C78.1358 15.058 77.4499 14.899 76.4416 14.899C75.7603 14.899 75.2288 15.0353 74.8473 15.3078C74.4658 15.5713 74.1569 16.0391 73.9207 16.7113ZM79.0442 19.8181C78.5536 19.9816 77.7769 20.1769 76.7141 20.4041C75.6512 20.6312 74.9563 20.8537 74.6293 21.0717C74.1296 21.426 73.8798 21.8757 73.8798 22.4207C73.8798 22.9567 74.0797 23.42 74.4794 23.8106C74.8791 24.2012 75.3878 24.3965 76.0055 24.3965C76.6959 24.3965 77.3545 24.1694 77.9813 23.7152C78.4446 23.37 78.749 22.9476 78.8943 22.448C78.9942 22.121 79.0442 21.4987 79.0442 20.5812V19.8181ZM74.9018 10.525L76.7822 6.45076H81.0745L77.3273 10.525H74.9018ZM90.572 26.7675L84.74 12.2964H88.7597L91.485 19.6819L92.2753 22.1482C92.4842 21.5214 92.6159 21.1081 92.6704 20.9082C92.7976 20.4994 92.9339 20.0906 93.0792 19.6819L95.8317 12.2964H99.7697L94.0194 26.7675H90.572ZM110.507 22.1618L114.323 22.8023C113.832 24.2012 113.055 25.2686 111.992 26.0044C110.939 26.7312 109.617 27.0945 108.027 27.0945C105.511 27.0945 103.649 26.2724 102.44 24.6282C101.487 23.311 101.01 21.6486 101.01 19.641C101.01 17.2428 101.637 15.3669 102.89 14.0133C104.144 12.6507 105.729 11.9694 107.646 11.9694C109.799 11.9694 111.497 12.6825 112.742 14.1087C113.986 15.5259 114.581 17.7015 114.527 20.6357H104.934C104.961 21.7712 105.27 22.6569 105.861 23.2928C106.451 23.9196 107.187 24.233 108.068 24.233C108.668 24.233 109.172 24.0695 109.581 23.7425C109.989 23.4155 110.298 22.8886 110.507 22.1618ZM110.725 18.292C110.698 17.1837 110.412 16.3434 109.867 15.7711C109.322 15.1897 108.659 14.899 107.877 14.899C107.042 14.899 106.351 15.2034 105.806 15.812C105.261 16.4206 104.993 17.2473 105.002 18.292H110.725ZM117.661 26.7675V6.79142H121.49V26.7675H117.661Z" fill="#6F55A1"/>
<path d="M17.7184 32.9303C18.0595 32.5892 18.5401 32.4187 19.1602 32.4187C19.8114 32.4187 20.2455 32.6202 20.4625 33.0233C20.4936 33.0854 20.5091 33.2094 20.5091 33.3954C20.5091 33.7675 20.354 34.5272 20.0439 35.6745C19.6098 37.2868 19.3928 38.2326 19.3928 38.5116V39.1163L19.9974 38.7442C20.3075 38.5271 20.9432 37.752 21.9044 36.4186C23.0207 34.8373 23.9354 33.783 24.6485 33.2559C25.3927 32.6978 26.2609 32.4187 27.2532 32.4187C28.2454 32.4187 28.912 32.7288 29.2531 33.3489C29.5942 33.9381 29.7647 35.0853 29.7647 36.7907C29.7647 38.2481 29.8423 38.9767 29.9973 38.9767C30.0593 38.9767 30.1213 38.9612 30.1833 38.9302C30.4934 38.7442 31.036 38.0465 31.8112 36.8372C32.9275 35.1628 33.8732 34.0156 34.6484 33.3954C35.4236 32.7753 36.2763 32.4652 37.2065 32.4652H37.5786C38.1367 32.5272 38.5088 32.6047 38.6948 32.6978C38.9119 32.7908 39.222 33.0543 39.6251 33.4884C40.4933 34.3877 40.9274 35.5039 40.9274 36.8372C40.9274 37.9845 40.5708 39.6279 39.8576 41.7674C39.2685 43.4418 38.9739 44.5736 38.9739 45.1627C38.9739 45.7208 39.3305 45.9999 40.0437 45.9999C40.2917 45.9999 40.5863 45.8604 40.9274 45.5813C41.2995 45.3022 41.9506 44.6666 42.8808 43.6744C44.3692 42.124 45.1599 41.3488 45.2529 41.3488C45.3769 41.3488 45.4389 41.4573 45.4389 41.6744C45.4389 42.2325 45.1444 42.9302 44.5552 43.7674C42.8498 46.279 41.0824 47.6278 39.253 47.8138H38.9739C37.9817 47.8138 37.129 47.2557 36.4158 46.1394C35.8577 45.3022 35.5786 44.3255 35.5786 43.2092C35.5786 41.9069 35.9662 40.0775 36.7414 37.7209C37.2065 36.1396 37.4391 35.1628 37.4391 34.7908C37.4391 34.5427 37.377 34.3722 37.253 34.2791C37.16 34.1861 36.9119 34.1241 36.5088 34.0931H36.1367C35.7026 34.0931 35.1755 34.4342 34.5554 35.1163C33.3771 36.3566 31.8577 39.1163 29.9973 43.3953C29.8113 43.8294 29.6097 44.2945 29.3927 44.7906C29.1756 45.2867 28.9896 45.6898 28.8345 45.9999C28.6795 46.341 28.5865 46.558 28.5555 46.6511C28.4004 46.9301 28.2299 47.1007 28.0438 47.1627C27.8888 47.2247 27.4392 47.2557 26.695 47.2557H25.1136V46.0464C25.1136 45.3642 25.2377 44.372 25.4857 43.0697C25.7028 42.1085 25.9508 40.5581 26.2299 38.4186C26.509 36.2481 26.6485 34.9148 26.6485 34.4187C26.6485 34.2636 26.5865 34.1861 26.4625 34.1861C25.8423 34.1861 25.0516 34.7287 24.0904 35.814C21.7959 38.2946 20.199 41.1007 19.2998 44.2325C18.9277 45.5348 18.6331 46.3565 18.4161 46.6976C18.23 47.0697 17.9044 47.3177 17.4393 47.4417C17.0362 47.5658 16.6486 47.6278 16.2766 47.6278C15.5324 47.6278 15.0673 47.2247 14.8812 46.4185C14.8502 46.3255 14.8347 46.0774 14.8347 45.6743C14.8347 43.0697 15.0828 40.5271 15.5789 38.0465C16.075 35.5039 16.7882 33.7985 17.7184 32.9303ZM55.8171 34.7442C55.6 34.4032 55.1969 34.2326 54.6078 34.2326C53.9876 34.2326 53.445 34.4497 52.9799 34.8838C52.4838 35.3799 51.8946 36.3101 51.2125 37.6744C50.5613 39.0388 50.2357 39.9845 50.2357 40.5116C50.2357 41.0697 50.2823 41.3798 50.3753 41.4418H50.4683C50.7164 41.4418 51.29 41.2093 52.1892 40.7442C53.1194 40.248 53.8016 39.8139 54.2357 39.4419C55.476 38.3876 56.0961 37.1628 56.0961 35.7675C56.0961 35.3644 56.0031 35.0233 55.8171 34.7442ZM52.9799 32.6978C53.6 32.5117 54.4372 32.4187 55.4915 32.4187C57.4139 32.4187 58.7317 32.8993 59.4449 33.8605C59.755 34.3256 59.91 34.9768 59.91 35.814C59.91 36.5892 59.7705 37.2558 59.4914 37.814C59.0573 38.6822 58.3752 39.4263 57.4449 40.0465C56.5457 40.6356 54.5923 41.6434 51.5846 43.0697C50.6854 43.5038 50.2357 43.8914 50.2357 44.2325C50.2357 44.3565 50.2823 44.5115 50.3753 44.6976C50.8094 45.6278 51.8326 46.0929 53.445 46.0929C53.6931 46.0929 54.0962 46.0619 54.6543 45.9999C56.0496 45.8139 57.4449 45.0852 58.8403 43.8139C59.2744 43.3798 59.9255 42.8372 60.7937 42.186C61.1348 41.9379 61.3364 41.8139 61.3984 41.8139C61.4604 41.7829 61.5689 41.8604 61.724 42.0465C61.817 42.2015 61.8635 42.3875 61.8635 42.6046C61.8635 42.9767 61.755 43.2868 61.5379 43.5348C61.2899 43.8449 60.6232 44.403 59.5379 45.2092C58.4837 46.0154 57.662 46.5735 57.0729 46.8836C56.4837 47.1937 55.9876 47.3797 55.5845 47.4417C55.2124 47.5038 54.4062 47.5503 53.1659 47.5813C52.6698 47.6123 52.0962 47.6278 51.445 47.6278C50.7009 47.6278 50.0342 47.4727 49.4451 47.1627C48.2358 46.5735 47.2901 45.7518 46.6079 44.6976C45.9257 43.6744 45.5846 42.5891 45.5846 41.4418C45.5846 40.8527 45.6777 40.2791 45.8637 39.7209C46.0808 39.0078 46.5149 38.155 47.166 37.1628C47.8482 36.1706 48.4993 35.4109 49.1195 34.8838C50.2978 33.8605 51.5846 33.1319 52.9799 32.6978ZM64.9107 33.0699C65.3138 32.6357 65.7789 32.4187 66.306 32.4187C66.7401 32.4187 67.0502 32.4962 67.2362 32.6513C67.4223 32.7753 67.5153 33.0388 67.5153 33.4419C67.5153 33.9381 67.3448 34.8373 67.0037 36.1396C66.6936 37.4419 66.5386 38.4031 66.5386 39.0233V39.2558L66.5851 40.4186L67.1897 39.3023C67.9339 37.876 68.8331 36.5582 69.8874 35.3489C70.9416 34.1086 71.9028 33.2714 72.771 32.8373C73.3292 32.5582 73.8563 32.4187 74.3524 32.4187C75.2826 32.4187 76.2749 33.0388 77.3291 34.2791C77.9493 35.0543 78.2593 35.814 78.2593 36.5582C78.2593 37.1783 78.0733 38.0465 77.7012 39.1628C76.5849 42.5736 76.0268 44.6356 76.0268 45.3487C76.0268 45.6588 76.0578 45.8449 76.1198 45.9069C76.2129 45.9689 76.3989 45.9999 76.678 45.9999C77.8562 45.9999 79.2361 44.8371 80.8174 42.5116C81.4066 41.7364 81.8407 41.3488 82.1197 41.3488C82.3368 41.3488 82.4453 41.4728 82.4453 41.7209C82.4453 42 82.3368 42.4651 82.1197 43.1162C81.6856 44.2945 80.8174 45.3642 79.5151 46.3255C78.2438 47.3177 77.0656 47.8138 75.9803 47.8138C75.7012 47.8138 75.4997 47.7983 75.3757 47.7673C75.0036 47.6743 74.6005 47.4262 74.1664 47.0231C73.7323 46.62 73.4067 46.1859 73.1896 45.7208C72.9106 45.1317 72.771 44.3565 72.771 43.3953C72.771 41.5969 73.2517 39.2558 74.2129 36.3721C74.523 35.4109 74.678 34.8373 74.678 34.6512C74.678 34.4962 74.616 34.3722 74.4919 34.2791C74.2439 34.1241 73.9338 34.0466 73.5617 34.0466C73.1586 34.0466 72.771 34.1396 72.399 34.3256C71.3757 34.8528 69.9649 36.9923 68.1665 40.7442C66.337 44.5891 65.0192 46.7596 64.213 47.2557C63.8409 47.5038 63.4999 47.6278 63.1898 47.6278C62.9417 47.6278 62.6937 47.5038 62.4456 47.2557C62.1665 46.9766 62.027 46.3875 62.027 45.4883C62.027 44.9301 62.1045 43.8759 62.2596 42.3255C62.7557 37.4884 63.6394 34.4032 64.9107 33.0699ZM87.2527 24.1863C87.5937 23.8452 87.9658 23.6746 88.3689 23.6746C88.772 23.6746 89.0976 23.8452 89.3457 24.1863C89.6247 24.5583 89.7643 25.0545 89.7643 25.6746C89.7643 26.3258 89.5937 27.194 89.2526 28.2792C88.9116 29.2404 88.741 29.8606 88.741 30.1397C88.741 30.3567 88.834 30.4962 89.0201 30.5583C89.2061 30.5893 89.5782 30.6048 90.1363 30.6048C91.7797 30.6048 92.6014 30.8993 92.6014 31.4885C92.6014 31.7055 92.5549 31.8606 92.4619 31.9536C92.3689 32.0466 92.1673 32.1241 91.8572 32.1861C91.3921 32.3412 90.7565 32.4187 89.9503 32.4187C89.2371 32.4187 88.803 32.4652 88.648 32.5582C88.3999 32.7133 88.0433 33.7675 87.5782 35.721C87.1131 37.6434 86.7565 39.5194 86.5085 41.3488C86.3845 42.341 86.3224 43.3953 86.3224 44.5115C86.3224 45.5968 86.4 46.217 86.555 46.372C86.71 46.527 86.8961 46.6045 87.1131 46.6045C88.0123 46.6045 89.1131 45.6588 90.4154 43.7674C91.0045 42.9302 91.3301 42.4961 91.3921 42.4651C91.4231 42.4341 91.4852 42.4186 91.5782 42.4186C91.9813 42.4186 92.1828 42.8061 92.1828 43.5813C92.1828 44.2015 91.6867 45.0542 90.6945 46.1394C89.7022 47.2247 88.7565 47.9689 87.8573 48.372C87.3922 48.558 86.8341 48.651 86.1829 48.651C85.5628 48.651 85.0666 48.558 84.6946 48.372C83.3302 47.6588 82.6481 46.1859 82.6481 43.9534C82.6481 42 83.0512 39.3023 83.8574 35.8605C83.9504 35.4884 84.0434 35.0543 84.1364 34.5582C84.2605 34.0621 84.3535 33.69 84.4155 33.4419C84.4775 33.1939 84.5085 33.0543 84.5085 33.0233C84.5085 32.9613 84.2294 32.7288 83.6713 32.3257C83.1132 31.9536 82.8341 31.6125 82.8341 31.3024C82.8341 30.9303 83.1752 30.6513 83.8574 30.4652C84.4775 30.2792 84.9581 29.9071 85.2992 29.349C85.6713 28.7598 86.0124 27.8296 86.3224 26.5583C86.6325 25.287 86.9426 24.4963 87.2527 24.1863ZM102.964 34.7442C102.747 34.4032 102.344 34.2326 101.755 34.2326C101.134 34.2326 100.592 34.4497 100.127 34.8838C99.6306 35.3799 99.0415 36.3101 98.3593 37.6744C97.7082 39.0388 97.3826 39.9845 97.3826 40.5116C97.3826 41.0697 97.4291 41.3798 97.5221 41.4418H97.6152C97.8632 41.4418 98.4369 41.2093 99.3361 40.7442C100.266 40.248 100.948 39.8139 101.383 39.4419C102.623 38.3876 103.243 37.1628 103.243 35.7675C103.243 35.3644 103.15 35.0233 102.964 34.7442ZM100.127 32.6978C100.747 32.5117 101.584 32.4187 102.638 32.4187C104.561 32.4187 105.879 32.8993 106.592 33.8605C106.902 34.3256 107.057 34.9768 107.057 35.814C107.057 36.5892 106.917 37.2558 106.638 37.814C106.204 38.6822 105.522 39.4263 104.592 40.0465C103.693 40.6356 101.739 41.6434 98.7314 43.0697C97.8322 43.5038 97.3826 43.8914 97.3826 44.2325C97.3826 44.3565 97.4291 44.5115 97.5221 44.6976C97.9562 45.6278 98.9795 46.0929 100.592 46.0929C100.84 46.0929 101.243 46.0619 101.801 45.9999C103.196 45.8139 104.592 45.0852 105.987 43.8139C106.421 43.3798 107.072 42.8372 107.941 42.186C108.282 41.9379 108.483 41.8139 108.545 41.8139C108.607 41.7829 108.716 41.8604 108.871 42.0465C108.964 42.2015 109.01 42.3875 109.01 42.6046C109.01 42.9767 108.902 43.2868 108.685 43.5348C108.437 43.8449 107.77 44.403 106.685 45.2092C105.631 46.0154 104.809 46.5735 104.22 46.8836C103.631 47.1937 103.134 47.3797 102.731 47.4417C102.359 47.5038 101.553 47.5503 100.313 47.5813C99.8167 47.6123 99.243 47.6278 98.5919 47.6278C97.8477 47.6278 97.1811 47.4727 96.5919 47.1627C95.3826 46.5735 94.4369 45.7518 93.7548 44.6976C93.0726 43.6744 92.7315 42.5891 92.7315 41.4418C92.7315 40.8527 92.8245 40.2791 93.0106 39.7209C93.2276 39.0078 93.6617 38.155 94.3129 37.1628C94.995 36.1706 95.6462 35.4109 96.2663 34.8838C97.4446 33.8605 98.7314 33.1319 100.127 32.6978Z" fill="#7BE2DD"/>
</svg>
